<svg enable-background="new 0 0 403.25 353.688" height="64" viewBox="0 0 32 32.000001" width="64" xmlns="http://www.w3.org/2000/svg"><g fill="#a90533" transform="matrix(.35035781 0 0 .35035781 -3.511287 3.291626)"><path d="m24.344369 64.810031c-7.089038-7.511886-11.236772-17.889583-11.22626-30.271628-.009795-10.950333 3.430803-20.362646 9.34566-27.5247863l-.0096.00358h-12.432169v57.7940283h14.313529l.0088-.0012z"/><path d="m89.819418 64.814809c3.053824-3.270743 5.790153-7.122722 8.269668-11.527988l-13.760482-6.880241c-4.832653 7.856615-11.899951 15.088274-21.67276 15.136531-14.223226-.048257-19.811511-12.210517-19.780693-27.864977h53.149863c.07095-1.767362.07095-2.589168 0-3.439881.346878-9.31341-2.121408-17.141834-6.611482-23.2382534l-.02317.01744h11.966838v57.7940244h-11.563821l.02604.0033z"/><path d="m43.73542 20.261664c.588404-7.087604 6.17645-11.8540818 12.728446-11.8684156 6.59667.0143338 11.36291 4.7808116 11.524404 11.8684156z"/></g></svg>