<svg xmlns:dc="http://purl.org/dc/elements/1.1/" xmlns:cc="http://creativecommons.org/ns#" xmlns:rdf="http://www.w3.org/1999/02/22-rdf-syntax-ns#" xmlns:svg="http://www.w3.org/2000/svg" xmlns="http://www.w3.org/2000/svg" xmlns:sodipodi="http://sodipodi.sourceforge.net/DTD/sodipodi-0.dtd" xmlns:inkscape="http://www.inkscape.org/namespaces/inkscape" width="456" height="284" version="1.1" inkscape:version="0.48.5 r10040" sodipodi:docname="2016-08-22-16-57-24.svg" style=""><rect id="backgroundrect" width="100%" height="100%" x="0" y="0" fill="none" stroke="none"/>
  <defs id="defs4"/>
  <sodipodi:namedview id="base" pagecolor="#ffffff" bordercolor="#666666" borderopacity="1.0" inkscape:pageopacity="0.0" inkscape:pageshadow="2" inkscape:zoom="0.35" inkscape:cx="375" inkscape:cy="497.14286" inkscape:document-units="px" inkscape:current-layer="layer1" showgrid="false" inkscape:window-width="1366" inkscape:window-height="706" inkscape:window-x="-8" inkscape:window-y="-8" inkscape:window-maximized="1"/>
  <metadata id="metadata7">
    <rdf:RDF>
      <cc:Work rdf:about="">
        <dc:format>image/svg+xml</dc:format>
        <dc:type rdf:resource="http://purl.org/dc/dcmitype/StillImage"/>
        <dc:title/>
      </cc:Work>
    </rdf:RDF>
  </metadata>
  
<g class="currentLayer" style=""><title>Layer 1</title><g inkscape:label="Layer 1" inkscape:groupmode="layer" id="layer1" class="">
    <path style="fill:#000000" d="m364.31251165039066,-2.2737367713729795e-13 c-0.6844000000000003,0 -23.11743,22.95274 -22.9375,23.46875 c0.22029000000000012,0.6316700000000006 15.59145,16.24565 50.625,51.46875 c18.46854,18.5684 24.16055,24.58082 23.8125,25.1875 c-0.25162,0.4385200000000003 -16.95411,17.46195 -37.09375,37.8125 c-20.13963,20.35056 -36.81195,37.34455 -37.0625,37.78125 c-0.3436700000000003,0.5989000000000003 2.34109,3.6196 10.9375,12.25 c6.26875,6.2935 11.55536,11.4375 11.75,11.4375 c0.1945800000000001,0 20.31753,-20.17549 44.71875,-44.8125 c29.25371,-29.53635 44.79274,-45.58664 45.625,-47.15625 c1.06886,-2.0159 1.27547,-3.16816 1.28125,-7.46875 c0.006000000000000006,-4.26797 -0.18766000000000008,-5.46742 -1.25,-7.625 c-0.95328,-1.93608 -12.19327,-13.62644 -45.6875,-47.46875 c-24.42751,-24.68133 -44.54764,-44.875 -44.71875,-44.875 zm-205.65625,41 c-14.0874,0.005000000000000003 -23.08474,0.016400000000000015 -23.5625,0.06250000000000004 c-0.95553,0.09210000000000008 -1.71875,0.38565000000000016 -1.71875,0.6250000000000003 c0,0.23934000000000008 5.83903,5.93517 12.96875,12.65625 c7.12972,6.72108 14.80255,13.95851 17.0625,16.09375 l4.09375,3.875 l77.5625,0 c51.51267,0 77.53125,-0.1749600000000001 77.53125,-0.53125 c0,-0.56732 -4.53386,-5.01925 -22.625,-22.09375 l-11.15625,-10.5 l-75.96875,-0.15625000000000008 c-20.89621,-0.03780000000000002 -40.1001,-0.0367 -54.1875,-0.03120000000000002 zm-67.03125,43.21875 l-44.03125,44.34375 c-29.04974,29.27738 -44.63381,45.3862 -45.8125,47.3125 c-1.7128200000000002,2.7993 -1.78125,3.13545 -1.78125,8.28125 c0,4.9519 0.13116999999999998,5.56485 1.5625,8.03125 c0.9891099999999997,1.7043 11.2357,12.44455 28.3125,29.65625 c14.72935,14.8458 34.61,34.8696 44.15625,44.5 c9.54625,9.6305 17.49116,17.53125 17.65625,17.53125 c0.16509000000000013,0 5.41603,-5.17255 11.6875,-11.46875 c6.27148,-6.2963000000000005 11.32507,-11.6936 11.21875,-12 c-0.20818,-0.5999000000000003 -16.23884,-16.8858 -52.21875,-53.0625 c-17.22063,-17.3147 -22.56871,-22.99235 -22.21875,-23.59375 c0.25338000000000016,-0.4354000000000002 17.05712,-17.54235 37.34375,-38.03125 c20.28664,-20.4889 36.952,-37.5245 37.03125,-37.875 c0.07930000000000002,-0.3504800000000002 -5.03222,-5.83505 -11.375,-12.15625 l-11.53125,-11.46875 zm153.84375,40.875 c-38.61937,0.03750000000000001 -77.35484,0.25383 -78.0625,0.6250000000000003 c-0.6421900000000005,0.3368300000000003 -3.21968,2.56494 -5.71875,4.96875 c-5.94503,5.71843 -21.86903,20.73924 -25.78125,24.3125 c-1.6899900000000008,1.5435699999999999 -2.94504,3.01623 -2.78125,3.28125 c0.17461000000000004,0.28252000000000016 32.37963,0.5 77.8125,0.5 l77.46875,0 l10.3125,-9.75 c5.66256,-5.36567 13.46379,-12.73322 17.34375,-16.375 c3.87996,-3.6417800000000002 6.90684,-6.83991 6.75,-7.09375 c-0.22885000000000008,-0.37026000000000014 -38.72438,-0.50624 -77.34375,-0.46875 zm-34.59375,84.46875 c-66.66785,0 -77.5,0.09600000000000009 -77.5,0.7500000000000003 c0,0.4182 1.15709,1.82145 2.59375,3.09375 c2.29054,2.0285 12.63581,11.72725 25.1875,23.65625 c2.20507,2.0957 4.71307,4.353 5.5625,5 l1.53125,1.1875 l77,-0.15625000000000008 c56.97913,-0.1003 77.0374,-0.26845 77.1875,-0.7187500000000003 c0.11151000000000004,-0.33470000000000016 -7.48641,-7.8656500000000005 -16.90625,-16.71875 l-17.125,-16.09375 l-77.53125,0 z" id="path3062" inkscape:connector-curvature="0"/>
  </g></g></svg>